# File created by Blade
# Date/Time:  Wed Jan 21 14:43:55 2015
# Frame Rate: 120.000 fps
#------------------------------------------------------
:FULLY-SPECIFIED
:DEGREES
1536
root 15.211172 35.333489 -20.515052 -172.001452 -2.101253 176.081670
Spine -16.540146 -6.524424 26.129220
Head 26.246609 -3.248805 30.995168
LeftShoulder -8.697182 -63.687625 61.844061
LeftArm 65.619994 -32.906966 -23.433945
LeftForeArm -59.915637 -0.000000 85.908991
LeftHand 4.474212 -0.000000 -9.752525
LeftHandThumb1 -26.253704 0.000000 33.147579
RightShoulder -13.073907 18.203092 -31.559651
RightArm 83.575101 59.325263 42.158374
RightForeArm 29.122567 0.000000 77.001450
RightHand 11.001061 -0.000000 26.795342
RightHandThumb1 -24.326973 -0.000000 -32.862282
LeftUpLeg -0.162666 7.441117 -8.860327
LeftLeg -6.529827 -0.000000 0.000000
LeftFoot -19.857996 27.784682 -10.996672
LeftToeBase 25.526425 -0.000000 -0.000000
RightUpLeg -0.993613 -16.384248 -12.456004
RightLeg -3.034996 -0.000000 0.000000
RightFoot -17.823864 -17.951251 20.311595
RightToeBase 26.390570 -0.000000 -0.000000
1537
root 15.299295 35.343873 -20.511712 -172.084316 -1.905462 176.209243
Spine -16.379311 -6.526591 25.784289
Head 26.354600 -3.011875 30.649349
LeftShoulder -8.865672 -63.778981 61.876889
LeftArm 65.419102 -32.799778 -23.336999
LeftForeArm -59.898546 -0.000000 85.844692
LeftHand 4.389816 0.000000 -9.619433
LeftHandThumb1 -26.253704 0.000000 33.147579
RightShoulder -12.912802 18.256693 -31.761865
RightArm 83.802674 59.314221 42.461268
RightForeArm 29.311344 -0.000000 76.899884
RightHand 11.039075 -0.000000 27.004801
RightHandThumb1 -24.326973 -0.000000 -32.862282
LeftUpLeg -0.115733 7.591517 -8.610780
LeftLeg -6.513600 -0.000000 0.000000
LeftFoot -19.880094 27.869712 -11.074067
LeftToeBase 25.553530 -0.000000 -0.000000
RightUpLeg -1.044171 -16.237127 -12.201800
RightLeg -2.954734 -0.000000 0.000000
RightFoot -17.853575 -17.938342 20.206648
RightToeBase 26.263234 -0.000000 -0.000000
1538
root 15.392451 35.354860 -20.508867 -172.159878 -1.715891 176.349257
Spine -16.226815 -6.511334 25.432327
Head 26.460165 -2.782420 30.336833
LeftShoulder -9.084127 -63.892139 62.002515
LeftArm 65.146605 -32.644168 -23.297526
LeftForeArm -59.804780 -0.000000 85.852849
LeftHand 4.460910 0.000000 -9.773435
LeftHandThumb1 -26.253704 0.000000 33.147579
RightShoulder -12.805251 18.182654 -31.982069
RightArm 84.101185 59.335826 42.862109
RightForeArm 29.244028 -0.000000 76.868912
RightHand 11.137825 -0.000000 26.992608
RightHandThumb1 -24.326973 -0.000000 -32.862282
LeftUpLeg -0.098717 7.815484 -8.341171
LeftLeg -6.451158 -0.000000 0.000000
LeftFoot -19.914468 27.865933 -11.136924
LeftToeBase 25.585366 -0.000000 -0.000000
RightUpLeg -1.088674 -15.986256 -11.941139
RightLeg -2.881450 -0.000000 0.000000
RightFoot -17.877974 -17.919048 20.146400
RightToeBase 26.207762 -0.000000 -0.000000
1539
root 15.488146 35.366421 -20.506020 -172.228605 -1.533249 176.496262
Spine -16.102261 -6.488498 25.087080
Head 26.571674 -2.578251 29.989265
LeftShoulder -9.113885 -63.902882 61.919671
LeftArm 65.025437 -32.575117 -23.336830
LeftForeArm -59.894617 0.000000 85.796103
LeftHand 4.548404 0.000000 -9.537478
LeftHandThumb1 -26.253704 0.000000 33.147579
RightShoulder -12.668591 18.271460 -32.251621
RightArm 84.072082 59.280419 42.956431
RightForeArm 29.239321 -0.000000 76.847408
RightHand 11.151970 -0.000000 27.028463
RightHandThumb1 -24.326973 -0.000000 -32.862282
LeftUpLeg -0.062287 7.941175 -8.055454
LeftLeg -6.435262 -0.000000 0.000000
LeftFoot -19.937105 27.990001 -11.235668
LeftToeBase 25.489111 -0.000000 -0.000000
RightUpLeg -1.088749 -15.687474 -11.673267
RightLeg -2.893360 -0.000000 0.000000
RightFoot -17.886974 -17.935542 20.133511
RightToeBase 26.193704 -0.000000 -0.000000
1540
root 15.584235 35.377777 -20.505447 -172.309237 -1.330040 176.607282
Spine -15.989157 -6.462138 24.675861
Head 26.745623 -2.531466 29.507696
LeftShoulder -9.028120 -63.875640 61.750301
LeftArm 64.744594 -32.650358 -23.114108
LeftForeArm -59.890346 0.000000 85.741695
LeftHand 4.379833 0.000000 -9.750787
LeftHandThumb1 -26.253704 0.000000 33.147579
RightShoulder -12.537326 18.594751 -32.571951
RightArm 83.755513 58.996191 42.866700
RightForeArm 29.284979 -0.000000 76.816653
RightHand 11.178138 -0.000000 27.180331
RightHandThumb1 -24.326973 -0.000000 -32.862282
LeftUpLeg -0.037979 8.183831 -7.808623
LeftLeg -6.362377 -0.000000 0.000000
LeftFoot -19.992597 27.957854 -11.379704
LeftToeBase 25.551191 -0.000000 -0.000000
RightUpLeg -1.115604 -15.531810 -11.432599
RightLeg -2.844070 -0.000000 0.000000
RightFoot -17.901408 -17.847237 20.048530
RightToeBase 26.294486 -0.000000 -0.000000
1541
root 15.684441 35.388518 -20.507220 -172.391675 -1.137496 176.747583
Spine -15.866322 -6.418244 24.280777
Head 26.882251 -2.369733 29.168573
LeftShoulder -9.070041 -63.812978 61.711027
LeftArm 64.575279 -32.636332 -23.096092
LeftForeArm -59.897180 -0.000000 85.624774
LeftHand 4.697069 -0.000000 -9.771744
LeftHandThumb1 -26.253704 0.000000 33.147579
RightShoulder -12.256077 18.289506 -32.595128
RightArm 84.101991 59.377876 43.066165
RightForeArm 29.264167 -0.000000 76.699353
RightHand 11.313285 -0.000000 27.130481
RightHandThumb1 -24.326973 -0.000000 -32.862282
LeftUpLeg 0.045017 8.299096 -7.516385
LeftLeg -6.382399 -0.000000 0.000000
LeftFoot -19.989762 28.059518 -11.479266
LeftToeBase 25.516560 -0.000000 -0.000000
RightUpLeg -1.104972 -15.312915 -11.162367
RightLeg -2.840273 -0.000000 0.000000
RightFoot -17.896543 -17.811593 19.974659
RightToeBase 26.204836 -0.000000 -0.000000
1542
root 15.786854 35.399361 -20.504690 -172.430321 -0.950357 176.865568
Spine -15.800572 -6.356786 23.866045
Head 27.057703 -2.270754 28.732011
LeftShoulder -9.115411 -63.764247 61.670322
LeftArm 64.362949 -32.619354 -23.061792
LeftForeArm -59.807317 -0.000000 85.621571
LeftHand 4.735315 -0.000000 -9.417261
LeftHandThumb1 -26.253704 0.000000 33.147579
RightShoulder -12.088588 18.257918 -32.786972
RightArm 84.244426 59.418183 43.263443
RightForeArm 29.287122 -0.000000 76.658603
RightHand 11.249491 0.000000 27.111738
RightHandThumb1 -24.326973 -0.000000 -32.862282
LeftUpLeg 0.041412 8.478927 -7.251231
LeftLeg -6.331334 -0.000000 0.000000
LeftFoot -20.011258 28.074827 -11.580508
LeftToeBase 25.561646 -0.000000 -0.000000
RightUpLeg -1.127550 -15.028930 -10.906635
RightLeg -2.849091 -0.000000 0.000000
RightFoot -17.923641 -17.813053 19.925862
RightToeBase 26.184593 -0.000000 -0.000000
1543
root 15.890250 35.410604 -20.503382 -172.483913 -0.759748 176.991320
Spine -15.714092 -6.270876 23.464992
Head 27.212758 -2.130220 28.287947
LeftShoulder -9.166271 -63.735209 61.593335
LeftArm 64.164510 -32.617179 -23.023520
LeftForeArm -59.848227 -0.000000 85.587659
LeftHand 4.759275 -0.000000 -9.523628
LeftHandThumb1 -26.253704 0.000000 33.147579
RightShoulder -11.983380 18.239427 -33.044418
RightArm 84.263340 59.406875 43.347930
RightForeArm 29.361507 -0.000000 76.605441
RightHand 11.349110 -0.000000 27.019911
RightHandThumb1 -24.326973 -0.000000 -32.862282
LeftUpLeg 0.053227 8.685958 -6.974327
LeftLeg -6.276599 -0.000000 0.000000
LeftFoot -20.033719 28.065747 -11.686947
LeftToeBase 25.602816 -0.000000 -0.000000
RightUpLeg -1.137952 -14.807722 -10.637680
RightLeg -2.859709 -0.000000 0.000000
RightFoot -17.934667 -17.795105 19.852002
RightToeBase 26.172217 -0.000000 -0.000000
1544
root 15.997463 35.422190 -20.502065 -172.535177 -0.582739 177.143345
Spine -15.638332 -6.171142 23.092201
Head 27.370794 -1.981686 27.839949
LeftShoulder -9.142568 -63.659110 61.431463
LeftArm 63.962608 -32.651169 -22.888760
LeftForeArm -59.908971 -0.000000 85.499433
LeftHand 4.959793 0.000000 -9.282595
LeftHandThumb1 -26.253704 0.000000 33.147579
RightShoulder -11.854829 18.310225 -33.289551
RightArm 84.189084 59.386173 43.306820
RightForeArm 29.454123 0.000000 76.520235
RightHand 11.380332 -0.000000 27.037349
RightHandThumb1 -24.326973 -0.000000 -32.862282
LeftUpLeg 0.071661 8.858405 -6.664076
LeftLeg -6.235606 -0.000000 0.000000
LeftFoot -20.072830 28.088947 -11.806524
LeftToeBase 25.653213 -0.000000 -0.000000
RightUpLeg -1.129974 -14.490324 -10.346058
RightLeg -2.893540 -0.000000 0.000000
RightFoot -17.929881 -17.789807 19.957263
RightToeBase 25.999640 -0.000000 -0.000000
1545
root 16.107520 35.431740 -20.502639 -172.574321 -0.427739 177.266607
Spine -15.612760 -6.119284 22.684404
Head 27.579629 -1.790057 27.440154
LeftShoulder -9.136486 -63.555315 61.303934
LeftArm 63.752897 -32.705634 -22.836009
LeftForeArm -60.169472 -0.000000 85.449695
LeftHand 4.935440 0.000000 -9.576862
LeftHandThumb1 -26.253704 0.000000 33.147579
RightShoulder -11.713578 18.438884 -33.565459
RightArm 84.011622 59.282875 43.222089
RightForeArm 29.614903 -0.000000 76.480864
RightHand 11.332109 0.000000 26.996739
RightHandThumb1 -24.326973 -0.000000 -32.862282
LeftUpLeg 0.098066 8.975601 -6.372457
LeftLeg -6.219702 -0.000000 0.000000
LeftFoot -20.078815 28.133317 -11.913973
LeftToeBase 25.671471 -0.000000 -0.000000
RightUpLeg -1.123712 -14.173890 -10.074027
RightLeg -2.916587 -0.000000 0.000000
RightFoot -17.994761 -17.903377 19.789471
RightToeBase 26.163296 -0.000000 -0.000000
1546
root 16.217637 35.442159 -20.499977 -172.598327 -0.253851 177.403487
Spine -15.587971 -6.030550 22.287926
Head 27.806125 -1.671192 26.927270
LeftShoulder -9.103600 -63.396057 61.135293
LeftArm 63.550754 -32.772325 -22.695939
LeftForeArm -60.032499 -0.000000 85.404472
LeftHand 5.106802 0.000000 -9.589480
LeftHandThumb1 -26.253704 0.000000 33.147579
RightShoulder -11.582187 18.431965 -33.767194
RightArm 84.153808 59.267338 43.378810
RightForeArm 29.732627 -0.000000 76.359391
RightHand 11.321645 0.000000 27.137843
RightHandThumb1 -24.326973 -0.000000 -32.862282
LeftUpLeg 0.100847 9.134770 -6.073938
LeftLeg -6.197701 -0.000000 0.000000
LeftFoot -20.087975 28.158430 -12.030253
LeftToeBase 25.734258 -0.000000 -0.000000
RightUpLeg -1.133011 -13.870131 -9.773033
RightLeg -2.972526 -0.000000 0.000000
RightFoot -18.059324 -18.008591 19.789975
RightToeBase 26.233677 -0.000000 -0.000000
